#N canvas 746 61 1007 616 12;
#X declare -path Fraise;
#X obj 26 6 declare -path Fraise;
#X msg 49 322 c 1 c \$1;
#X obj 52 296 hsl 170 20 2 40 0 0 empty empty led\ period 5 10 0 12 #ffe3c6 #7c7c7c #000000 0 1;
#X obj 26 34 pied/pied 1;
#N canvas 80 562 545 403 config 0;
#X floatatom 40 138 9 0 1e+06 2 run_ms - - 0;
#X msg 207 301 SAVE_EEPROM;
#X text 204 219 get params;
#X obj 40 223 list prepend 50;
#X obj 40 34 route run_ms stop_ms accel_ms decel_ms speed;
#X floatatom 124 142 9 0 1e+06 2 stop_ms - - 0;
#X floatatom 251 141 9 0 1e+06 2 accel_ms - - 0;
#X floatatom 342 143 9 0 1e+06 2 decel_ms - - 0;
#X floatatom 433 141 9 0 32767 2 speed - - 0;
#X msg 211 266 200 \$1;
#X msg 211 241 1 \, 2 \, 3 \, 4 \, 5;
#X msg 40 59 set \$1;
#X msg 50 89 5019;
#X msg 40 173 1 l \$1;
#X msg 124 170 2 l \$1;
#X msg 251 168 3 l \$1;
#X msg 342 173 4 l \$1;
#X msg 433 169 5 l \$1;
#X msg 101 59 set \$1;
#X msg 113 89 5019, f 6;
#X msg 161 58 set \$1;
#X msg 173 88 5019, f 6;
#X msg 222 58 set \$1;
#X msg 234 88 5019;
#X msg 283 57 set \$1;
#X msg 295 87 32639, f 6;
#X obj 227 7 bng 20 250 50 0 empty empty empty 0 -10 0 12 #fcfcfc #000000 #000000;
#X floatatom 106 353 5 0 300 0 - - - 0;
#X obj 106 377 * 1000;
#X obj 40 11 fruit/receive motorFruit;
#X obj 40 300 fruit/send2 motorFruit;
#X connect 0 0 13 0;
#X connect 1 0 30 1;
#X connect 3 0 30 0;
#X connect 4 0 11 0;
#X connect 4 1 18 0;
#X connect 4 2 20 0;
#X connect 4 3 22 0;
#X connect 4 4 24 0;
#X connect 5 0 14 0;
#X connect 6 0 15 0;
#X connect 7 0 16 0;
#X connect 8 0 17 0;
#X connect 9 0 3 0;
#X connect 10 0 9 0;
#X connect 11 0 12 0;
#X connect 11 0 0 0;
#X connect 12 0 0 0;
#X connect 13 0 3 0;
#X connect 14 0 3 0;
#X connect 15 0 3 0;
#X connect 16 0 3 0;
#X connect 17 0 3 0;
#X connect 18 0 19 0;
#X connect 18 0 5 0;
#X connect 19 0 5 0;
#X connect 20 0 21 0;
#X connect 20 0 6 0;
#X connect 21 0 6 0;
#X connect 22 0 23 0;
#X connect 22 0 7 0;
#X connect 23 0 7 0;
#X connect 24 0 25 0;
#X connect 24 0 8 0;
#X connect 25 0 8 0;
#X connect 26 0 12 0;
#X connect 26 0 25 0;
#X connect 26 0 23 0;
#X connect 26 0 21 0;
#X connect 26 0 19 0;
#X connect 27 0 28 0;
#X connect 28 0 0 0;
#X connect 29 0 4 0;
#X restore 440 42 pd config;
#N canvas 158 498 664 258 pio_sm_dma-cpuload 0;
#X obj 75 105 outlet;
#X msg 75 73 100;
#X text 78 54 fraise;
#X connect 1 0 0 0;
#X restore 141 247 pd pio_sm_dma-cpuload;
#X obj 276 148 print from_wifi;
#X msg 551 94 EHello;
#X obj 262 103 fruit/receive wifiFruit;
#X obj 442 121 fruit/send2 wifiFruit;
#X msg 559 67 1 \$1;
#X obj 562 43 hsl 170 20 2 80 0 0 empty empty empty -2 -10 0 12 #fcfcfc #000000 #000000 0 1;
#X msg 611 91 S;
#X msg 619 67 111;
#N canvas 285 64 715 313 wifiCtl 1;
#X msg 144 168 EHello;
#X obj 35 195 fruit/send2 wifiFruit;
#X msg 203 167 S;
#X msg 243 168 L\$1;
#X obj 243 136 tgl 20 0 empty empty empty 0 -10 0 12 #fcfcfc #000000 #000000 0 1;
#X obj 283 138 tgl 20 0 empty empty empty 0 -10 0 12 #fcfcfc #000000 #000000 0 1;
#X msg 283 170 l\$1;
#X msg 317 125 e;
#X text 326 101 pages;
#X text 343 124 empty str;
#X msg 328 154 n;
#X text 355 155 normal;
#X msg 347 177 z;
#X text 372 175 zipped empty;
#X obj 317 250 t a;
#N canvas 411 39 1310 697 flash_html 0;
#X obj 102 83 fruit/receive wifiFruit;
#X obj 345 111 fruit/send2 wifiFruit;
#X msg 148 165 115 32 116 104 101 32 100 101 118 105 99 101 32 98 108;
#X obj 102 216 fudiparse;
#X listbox 102 273 62 0 0 0 - - - 0;
#X obj 102 245 list;
#X msg 466 85 100 l 100;
#X text 350 57 read;
#X text 467 67 set_size;
#X obj 102 108 route 100;
#X msg 345 81 110 i 0 c 50;
#X obj 698 367 file handle;
#X listbox 867 539 47 0 0 0 - - - 0;
#X obj 803 273 file size;
#X floatatom 847 330 5 0 0 0 - - - 0;
#X obj 851 585 bng 20 250 50 0 empty empty empty 0 -10 0 12 #fcfcfc #000000 #000000;
#X obj 698 472 list length;
#X floatatom 639 498 5 0 0 0 - - - 0;
#X msg 739 309 seek 0;
#X obj 698 505 +;
#X obj 734 506 f;
#X msg 783 472 0;
#X floatatom 622 553 5 0 0 0 - - - 0;
#X obj 698 530 moses, f 16;
#X obj 666 244 t a a, f 20;
#X obj 799 562 bng 20 250 50 0 empty empty empty 0 -10 0 12 #fcfcfc #000000 #000000;
#X msg 666 272 close \, open \$1 r;
#X obj 666 297 t b a;
#X msg 634 376 20;
#X obj 698 556 b;
#X obj 807 505 - 1;
#X obj 880 496 list prepend;
#X obj 961 418 list length;
#X obj 698 392 t a a a, f 38;
#X obj 961 443 pack f f;
#X text 1123 475 set_size;
#X msg 1122 493 100 l \$1;
#X obj 918 642 fruit/send2 wifiFruit;
#X msg 961 469 101 i \$2 c \$1;
#X msg 762 655 102;
#X text 768 637 save;
#X obj 666 153 del 200;
#X listbox 774 213 72 0 0 0 - - - 0;
#X obj 901 187 list;
#X obj 804 183 ggee/shell;
#X obj 666 178 symbol, f 8;
#X obj 666 11 inlet;
#X obj 630 674 outlet size;
#X obj 630 619 pack f f;
#X msg 630 644 \$1 / \$2;
#X msg 557 84 111;
#X text 555 63 get size;
#X obj 762 609 spigot 1;
#X obj 829 563 tgl 20 0 empty empty empty 0 -10 0 12 #fcfcfc #000000 #000000 0 1;
#X obj 1045 17 inlet dontsave;
#X obj 1045 44 == 0;
#X msg 1062 615 f;
#X text 1087 612 flash html;
#X obj 749 579 t b b;
#X msg 804 156 gzip --best -c \$1 > \$2;
#X obj 666 128 t b a, f 14;
#X msg 721 155 symbol \$2;
#X listbox 617 216 20 0 0 0 - - - 0;
#X obj 666 102 list append wifiHttpsFw/flash.html.gz;
#X msg 666 70 symbol wifiHttpsFw/flash.html;
#X obj 773 12 inlet;
#X obj 634 353 del 3;
#X msg 773 38 symbol wifiHttpsFw/config.html;
#X connect 0 0 9 0;
#X connect 2 0 3 0;
#X connect 3 0 5 0;
#X connect 5 0 4 0;
#X connect 6 0 1 0;
#X connect 9 0 3 0;
#X connect 10 0 1 0;
#X connect 11 0 33 0;
#X connect 12 0 15 0;
#X connect 13 0 14 0;
#X connect 13 0 21 0;
#X connect 13 0 30 0;
#X connect 13 0 36 0;
#X connect 13 0 48 1;
#X connect 16 0 17 0;
#X connect 16 0 19 0;
#X connect 18 0 11 0;
#X connect 19 0 20 0;
#X connect 19 0 22 0;
#X connect 19 0 23 0;
#X connect 19 0 48 0;
#X connect 20 0 19 1;
#X connect 20 0 34 1;
#X connect 21 0 20 0;
#X connect 23 0 29 0;
#X connect 23 1 25 0;
#X connect 23 1 58 0;
#X connect 24 0 26 0;
#X connect 24 1 13 0;
#X connect 26 0 27 0;
#X connect 27 0 66 0;
#X connect 27 1 11 0;
#X connect 28 0 11 0;
#X connect 29 0 66 0;
#X connect 30 0 23 1;
#X connect 31 0 12 0;
#X connect 31 0 37 0;
#X connect 32 0 34 0;
#X connect 33 0 16 0;
#X connect 33 1 31 0;
#X connect 33 2 32 0;
#X connect 34 0 38 0;
#X connect 36 0 37 0;
#X connect 38 0 31 1;
#X connect 39 0 37 0;
#X connect 41 0 45 0;
#X connect 43 0 42 0;
#X connect 45 0 24 0;
#X connect 45 0 62 0;
#X connect 46 0 64 0;
#X connect 48 0 49 0;
#X connect 49 0 47 0;
#X connect 50 0 1 0;
#X connect 52 0 39 0;
#X connect 53 0 52 1;
#X connect 54 0 55 0;
#X connect 55 0 53 0;
#X connect 56 0 37 1;
#X connect 58 0 56 0;
#X connect 58 1 52 0;
#X connect 59 0 43 0;
#X connect 59 0 44 0;
#X connect 60 0 41 0;
#X connect 60 1 59 0;
#X connect 60 1 61 0;
#X connect 61 0 45 1;
#X connect 63 0 60 0;
#X connect 64 0 63 0;
#X connect 65 0 67 0;
#X connect 66 0 28 0;
#X connect 67 0 63 0;
#X restore 35 69 pd flash_html;
#X msg 355 204 f;
#X text 380 201 flash html;
#X obj 35 41 bng 20 250 50 0 empty empty full 0 -10 0 12 #ff0400 #000000 #000000;
#X listbox 35 97 20 0 0 0 - - - 0;
#X obj 123 44 tgl 20 0 empty empty don't\ save 0 -10 0 12 #fcfcfc #000000 #000000 0 1;
#X obj 79 41 bng 20 250 50 0 empty empty config 0 -10 0 12 #ff8300 #000000 #000000;
#X obj 491 120 fruit/receive wifiFruit;
#X obj 491 145 route volume;
#X obj 494 170 hsl 170 20 0 255 0 0 empty empty empty -2 -10 0 12 #fcfcfc #000000 #000000 0 1;
#X floatatom 491 195 5 0 0 0 - - - 0;
#X listbox 24 289 20 0 0 0 - - - 0;
#X obj 24 260 r Fraise-fruit0-rcv;
#N canvas 68 318 1330 360 settings 0;
#X obj 141 157 fruit/send2 wifiFruit;
#X obj 64 226 fruit/receive wifiFruit;
#X obj 141 72 symbol;
#X obj 141 97 list fromsymbol;
#X obj 141 122 list prepend 10 1;
#X listbox 64 297 20 0 0 0 - - - 0;
#X msg 40 42 10 200 \$1;
#X listbox 213 297 20 0 0 0 - - - 0;
#X listbox 362 296 20 0 0 0 - - - 0;
#X listbox 511 296 20 0 0 0 - - - 0;
#X floatatom 660 277 7 0 0 0 - - - 0;
#X obj 64 274 symbol;
#X obj 213 274 symbol;
#X obj 362 274 symbol;
#X obj 511 274 symbol;
#X obj 273 72 symbol;
#X obj 273 97 list fromsymbol;
#X msg 273 44 pastropfacile;
#X obj 273 122 list prepend 10 2;
#X obj 409 73 symbol;
#X obj 409 98 list fromsymbol;
#X obj 541 73 symbol;
#X obj 541 98 list fromsymbol;
#X msg 541 45 pastropfacile;
#X msg 409 45 Livebox-80E0;
#X obj 409 123 list prepend 10 3;
#X obj 541 123 list prepend 10 4;
#X msg 679 60 4242;
#X obj 679 122 list prepend 10 5 int16;
#X obj 1066 82 symbol;
#X obj 1066 107 list fromsymbol;
#X msg 1066 55 EEPROM_SAVE;
#X obj 1066 132 list prepend 10 255;
#X obj 863 72 symbol;
#X obj 863 97 list fromsymbol;
#X obj 863 122 list prepend 10 6;
#X listbox 808 299 20 0 0 0 - - - 0;
#X obj 808 277 symbol;
#X obj 64 251 route ap_ssid ap_password sta_ssid sta_password tcp_port hostname, f 128;
#X msg 40 15 1 \, 2 \, 3 \, 4 \, 5 \, 6;
#X msg 141 44 RobesAP;
#X msg 863 44 robes;
#X connect 1 0 38 0;
#X connect 2 0 3 0;
#X connect 3 0 4 0;
#X connect 4 0 0 0;
#X connect 6 0 0 0;
#X connect 11 0 5 0;
#X connect 12 0 7 0;
#X connect 13 0 8 0;
#X connect 14 0 9 0;
#X connect 15 0 16 0;
#X connect 16 0 18 0;
#X connect 17 0 15 0;
#X connect 18 0 0 0;
#X connect 19 0 20 0;
#X connect 20 0 25 0;
#X connect 21 0 22 0;
#X connect 22 0 26 0;
#X connect 23 0 21 0;
#X connect 24 0 19 0;
#X connect 25 0 0 0;
#X connect 26 0 0 0;
#X connect 27 0 28 0;
#X connect 28 0 0 0;
#X connect 29 0 30 0;
#X connect 30 0 32 0;
#X connect 31 0 29 0;
#X connect 32 0 0 0;
#X connect 33 0 34 0;
#X connect 34 0 35 0;
#X connect 35 0 0 0;
#X connect 37 0 36 0;
#X connect 38 0 11 0;
#X connect 38 1 12 0;
#X connect 38 2 13 0;
#X connect 38 3 14 0;
#X connect 38 4 10 0;
#X connect 38 5 37 0;
#X connect 39 0 6 0;
#X connect 40 0 2 0;
#X connect 41 0 33 0;
#X restore 586 76 pd settings;
#N canvas 891 184 804 567 tcp_connect 0;
#X obj 25 109 fruit/send2 wifiFruit;
#X msg 213 62 T;
#X msg 253 63 t, f 2;
#X obj 306 192 tgl 20 0 empty empty empty 0 -10 0 12 #fcfcfc #000000 #000000 0 1;
#X msg 329 104 disconnect \, connect 192.168.1.116 4242;
#X msg 333 135 disconnect;
#X obj 474 390 print from_tcp;
#X obj 306 167 netsend -b;
#X msg 169 76 I\$1;
#X obj 169 41 tgl 20 0 empty empty empty 0 -10 0 12 #fcfcfc #000000 #000000 0 1;
#X obj 374 333 fudiparse;
#X obj 373 195 sel 10;
#X obj 419 299 t a;
#X obj 375 301 list;
#X obj 406 265 list prepend;
#X text 454 301 get line;
#X obj 373 223 t a b b;
#X obj 373 363 route sEcho;
#X obj 373 391 bng 20 250 50 0 empty empty empty 0 -10 0 12 #fcfcfc #000000 #000000;
#X listbox 424 443 24 0 0 0 - - - 0;
#X obj 424 413 list;
#X obj 424 467 bng 20 250 50 0 empty empty empty 0 -10 0 12 #fcfcfc #000000 #000000;
#X msg 306 25 80EHello;
#X obj 306 50 fudiformat -u;
#X obj 306 78 list append 10;
#X obj 448 25 r Fraise-to-pied-1;
#X obj 525 247 s Fraise-from-pied-1;
#X obj 673 438 r Fr2;
#X obj 643 102 tgl 15 0 empty empty empty 17 7 0 10 #fcfcfc #000000 #000000 0 1;
#X obj 673 489 route actif;
#X obj 673 463 route 1;
#X obj 643 122 == 0;
#X obj 525 212 spigot 1;
#X obj 448 49 spigot 1;
#X obj 448 74 spigot;
#X msg 667 188 #EsEcho;
#X obj 667 161 metro 1000;
#X obj 150 379 s Fr2;
#X msg 150 351 1 actif \$1;
#X obj 60 236 bng 20 250 50 0 empty empty empty 0 -10 0 12 #fcfcfc #000000 #000000;
#X obj 117 267 sel 1 0, f 10;
#X msg 150 322 0;
#X obj 140 436 s Fraise-forceactif-pied-1;
#X obj 197 125 r TCP-connect;
#X obj 197 150 route stop;
#X msg 95 187 disconnect \, connect \$1 \$2;
#X obj 95 163 list;
#X msg 710 116 0;
#X msg 117 292 #i \, #V \, #R \, whoami;
#X msg 259 317 #i \, #V \, #R;
#X msg 302 290 #V;
#X obj 599 40 r Fraise-pied-1-comport_on;
#X obj 599 65 tgl 20 0 empty empty empty 0 -10 0 12 #fcfcfc #000000 #000000 0 1;
#X connect 1 0 0 1;
#X connect 2 0 0 1;
#X connect 3 0 34 1;
#X connect 3 0 40 0;
#X connect 4 0 7 0;
#X connect 5 0 7 0;
#X connect 7 0 3 0;
#X connect 7 1 11 0;
#X connect 7 1 32 0;
#X connect 8 0 0 1;
#X connect 9 0 8 0;
#X connect 10 0 17 0;
#X connect 11 0 16 0;
#X connect 11 1 14 0;
#X connect 12 0 14 1;
#X connect 13 0 10 0;
#X connect 14 0 12 0;
#X connect 14 0 13 1;
#X connect 16 0 13 1;
#X connect 16 1 13 0;
#X connect 16 2 14 1;
#X connect 17 0 18 0;
#X connect 17 1 20 0;
#X connect 19 0 21 0;
#X connect 20 0 19 0;
#X connect 22 0 23 0;
#X connect 23 0 24 0;
#X connect 24 0 7 0;
#X connect 25 0 33 0;
#X connect 27 0 30 0;
#X connect 28 0 31 0;
#X connect 30 0 29 0;
#X connect 31 0 32 1;
#X connect 31 0 33 1;
#X connect 32 0 26 0;
#X connect 33 0 34 0;
#X connect 34 0 7 0;
#X connect 35 0 23 0;
#X connect 36 0 35 0;
#X connect 38 0 37 0;
#X connect 40 0 48 0;
#X connect 40 1 41 0;
#X connect 41 0 38 0;
#X connect 43 0 44 0;
#X connect 44 0 5 0;
#X connect 44 1 46 0;
#X connect 45 0 7 0;
#X connect 46 0 45 0;
#X connect 47 0 36 0;
#X connect 48 0 23 0;
#X connect 49 0 23 0;
#X connect 50 0 23 0;
#X connect 51 0 52 0;
#X connect 52 0 28 0;
#X restore 476 75 pd tcp_connect;
#N canvas 0 0 794 382 test_speed 0;
#X obj 242 274 list fromsymbol;
#X obj 242 247 symbol;
#X obj 242 299 list length;
#X floatatom 242 324 5 0 0 0 - - - 0;
#X obj 36 354 fruit/send2 wifiFruit;
#X msg 267 66 E1234567890123456789012345678901234567890123456789012345678901234567890123456789012345678901234567890;
#X obj 180 122 tgl 20 0 empty empty empty 0 -10 0 12 #fcfcfc #000000 #000000 0 1;
#X obj 180 181 i;
#X obj 212 180 + 1;
#X obj 243 178 mod 100;
#X msg 180 214 E12345678901234567890123456789012345678901234567890123456-\$1;
#X msg 267 140 0;
#X obj 180 148 metro 2;
#X connect 0 0 2 0;
#X connect 1 0 0 0;
#X connect 2 0 3 0;
#X connect 6 0 12 0;
#X connect 7 0 10 0;
#X connect 7 0 8 0;
#X connect 8 0 9 0;
#X connect 9 0 7 1;
#X connect 10 0 1 0;
#X connect 10 0 4 1;
#X connect 11 0 7 1;
#X connect 12 0 7 0;
#X restore 487 257 pd test_speed;
#X connect 0 0 1 1;
#X connect 2 0 1 1;
#X connect 3 0 1 1;
#X connect 4 0 3 0;
#X connect 5 0 6 0;
#X connect 6 0 1 1;
#X connect 7 0 14 0;
#X connect 10 0 14 0;
#X connect 12 0 14 0;
#X connect 14 0 1 1;
#X connect 15 0 19 0;
#X connect 16 0 14 0;
#X connect 18 0 15 0;
#X connect 20 0 15 2;
#X connect 21 0 15 1;
#X connect 22 0 23 0;
#X connect 23 0 24 0;
#X connect 24 0 25 0;
#X connect 27 0 26 0;
#X restore 444 11 pd wifiCtl;
#X msg 172 324 Ehello world;
#X obj 181 34 fruit/fruit 1 wifiFruit 0 wifiHttpsFw;
#X obj 726 118 s TCP-connect;
#X msg 677 81 stop;
#X msg 380 294 2;
#X msg 453 339 3 i \$1 \$2;
#X obj 444 257 hsl 170 20 -32768 32767 0 0 empty empty pwm -2 -10 0 12 #fcfcfc #000000 #000000 0 1;
#X obj 370 208 tgl 20 0 empty empty empty 0 -10 0 12 #fcfcfc #000000 #000000 0 1;
#X obj 68 418 route M;
#X obj 112 451 print;
#X listbox 21 559 26 0 0 0 - - - 0;
#X obj 89 501 unpack f f f f;
#X obj 444 281 hsl 170 10 -32768 32767 0 0 empty empty empty -2 -10 0 12 #faff00 #000000 #000000 0 1;
#X obj 453 311 pack f f;
#X obj 633 259 hsl 170 20 0 10000 0 0 empty empty time -2 -10 0 12 #fcfcfc #000000 #000000 0 1;
#X floatatom 692 305 7 0 0 0 - - - 0;
#X msg 486 226 0;
#X msg 327 499 40 \$1;
#X obj 327 457 tgl 20 0 empty empty run 0 -10 0 12 #fcfcfc #000000 #000000 0 1;
#X obj 369 236 metro 100;
#X obj 28 111 fruit/fruit 1 motorFruit 1 fw;
#X obj 34 350 fruit/send2 motorFruit;
#X obj 68 393 fruit/receive motorFruit;
#X msg 805 82 192.168.4.1 4242;
#X msg 726 82 robes 4242;
#X msg 77 254 45;
#X obj 30 586 bng 20 250 50 0 empty empty empty 0 -10 0 12 #fcfcfc #000000 #000000;
#X obj 327 397 route run;
#X msg 327 422 set \$1;
#X obj 327 373 fruit/receive motorFruit;
#X connect 1 0 36 0;
#X connect 2 0 1 0;
#X connect 5 0 36 0;
#X connect 7 0 9 1;
#X connect 8 0 6 0;
#X connect 10 0 9 0;
#X connect 11 0 10 0;
#X connect 12 0 9 1;
#X connect 13 0 9 0;
#X connect 15 0 36 1;
#X connect 18 0 17 0;
#X connect 19 0 36 0;
#X connect 20 0 36 0;
#X connect 21 0 28 0;
#X connect 22 0 34 0;
#X connect 23 0 25 0;
#X connect 23 0 26 0;
#X connect 23 1 24 0;
#X connect 25 0 41 0;
#X connect 26 0 27 0;
#X connect 28 0 20 0;
#X connect 29 0 28 1;
#X connect 29 0 30 0;
#X connect 31 0 21 0;
#X connect 32 0 36 0;
#X connect 33 0 32 0;
#X connect 34 0 19 0;
#X connect 37 0 23 0;
#X connect 38 0 17 0;
#X connect 39 0 17 0;
#X connect 40 0 36 0;
#X connect 42 0 43 0;
#X connect 43 0 33 0;
#X connect 44 0 42 0;
